<?xml version="1.0" encoding="UTF-8"?>
<svg id="Lager_1" data-name="Lager 1" xmlns="http://www.w3.org/2000/svg" version="1.1" viewBox="0 0 300 100">
  <defs>
  </defs>
  <text/>
  <g>
    <path  d="M40.75,37.53c.73-.52,1.6-.78,2.62-.78,1.56,0,2.84.55,3.83,1.64.99,1.09,1.48,2.53,1.48,4.3,0,4.62-2.62,7.94-7.88,9.94,1.25,4.71,1.88,8.91,1.88,12.59,0,5.46-1.44,9.85-4.33,13.19-2.89,3.33-6.35,5-10.39,5-2.79,0-5.08-.82-6.86-2.47-1.78-1.65-2.67-3.77-2.67-6.38,0-2.21.74-4.06,2.23-5.55,1.49-1.49,3.19-2.23,5.11-2.23,1.65,0,3.07.54,4.28,1.61,1.21,1.07,1.81,2.37,1.81,3.89,0,1.42-.48,2.64-1.45,3.66-.97,1.02-2.28,1.53-3.92,1.53l-.28-.91c1.9-.5,2.84-1.7,2.84-3.59,0-1.15-.39-2.08-1.16-2.81-.77-.73-1.76-1.09-2.95-1.09-1.44,0-2.64.57-3.61,1.7-.96,1.14-1.44,2.52-1.44,4.14,0,2.02.79,3.72,2.36,5.09,1.57,1.38,3.54,2.06,5.89,2.06,3.15,0,5.7-1.3,7.67-3.89s2.95-6.1,2.95-10.52c0-2.85-.65-7.58-1.94-14.19-3.98-.04-7.02-1-9.12-2.89-2.1-1.89-3.16-4.56-3.16-8.02,0-4.83,2.2-9.25,6.59-13.25,4.4-4,9.5-6.12,15.31-6.38l.31.81c-5.12,2.58-7.69,7.71-7.69,15.38,0,3.44.51,7.53,1.53,12.28,1.67-.54,2.96-1.52,3.88-2.92.92-1.41,1.38-2.97,1.38-4.7,0-1.62-.4-2.98-1.2-4.06-.8-1.08-1.75-1.62-2.83-1.62h-.75l-.34-.56ZM43.68,24.34c-4.64.83-8.36,3-11.17,6.5s-4.21,7.32-4.21,11.47c0,6.04,2.78,9.31,8.34,9.81-.54-4.27-.81-7.24-.81-8.91,0-7.88,2.61-14.17,7.84-18.88Z"/>
    <path  d="M71.53,59.78c-2.38,3.71-4.7,5.56-6.97,5.56-.85,0-1.47-.23-1.84-.69s-.57-1.42-.59-2.88c-1.25,1.54-2.31,2.55-3.17,3.02-.87.47-1.85.7-2.95.7-1.6,0-2.88-.55-3.83-1.66-.95-1.1-1.42-2.58-1.42-4.44v-1.34c-.23.29-.76,1.04-1.59,2.25l-1.03-.72c1.83-2.83,3.77-5.06,5.8-6.67,2.03-1.61,3.81-2.42,5.33-2.42,1.08,0,2.16.32,3.22.97l2.75-1.41v10.62c0,1.12.05,1.8.16,2.03.1.23.38.34.84.34.4,0,.99-.35,1.78-1.06.79-.71,1.66-1.72,2.59-3.03l.94.81ZM62.06,59.41v-6.28c-.84-.85-1.84-1.28-3.01-1.28-1.26,0-2.38.58-3.39,1.75-1,1.17-1.51,2.61-1.51,4.34,0,1.5.36,2.66,1.07,3.48.71.82,1.68,1.23,2.92,1.23.96,0,1.86-.47,2.68-1.42.83-.95,1.24-1.56,1.24-1.83Z"/>
    <path  d="M87.56,59.78c-2.33,3.71-5.34,5.56-9.03,5.56-1.79,0-3.24-.59-4.34-1.77-1.1-1.18-1.66-2.83-1.66-4.95l.06-.25-1.41,1.94-1.03-.72c3.08-4.54,5.29-7.23,6.61-8.08,1.32-.84,2.64-1.27,3.95-1.27,2.17,0,3.74.75,4.72,2.25-.29,1.15-.97,1.98-2.03,2.5-.92-2.27-2.26-3.41-4.03-3.41-1.04,0-1.98.48-2.83,1.44-.84.96-1.27,2.19-1.27,3.69,0,1.73.5,3.22,1.5,4.47s2.27,1.88,3.81,1.88c2.12,0,4.1-1.34,5.94-4.03l1.03.75Z"/>
    <path  d="M111.75,59.41c-2.48,3.96-5.09,5.94-7.83,5.94-1.38,0-2.57-.48-3.59-1.43-1.01-.95-2.46-2.92-4.34-5.9l-1.59,1.96v4.24l-3.12,1.59v-11.47l-4.03,5.84-.91-.84c3.29-5.1,4.94-7.79,4.94-8.06v-14.16c0-2.52.85-4.73,2.55-6.62,1.7-1.9,3.58-2.84,5.64-2.84,2.35,0,3.53,1.18,3.53,3.53,0,1.83-.73,4.38-2.19,7.62-1.46,3.25-3.59,6.94-6.41,11.06v8.22c2.44-3.02,4.33-5.06,5.69-6.11,1.35-1.05,2.66-1.58,3.91-1.58.92,0,1.7.34,2.36,1.02.66.68.98,1.23.98,1.67,0,.62-.73,1.35-2.19,2.19-.73-1.71-1.6-2.56-2.62-2.56-1.16,0-2.59.95-4.27,2.86,1.62,2.5,2.93,4.37,3.94,5.62,1.01,1.25,2.19,1.87,3.55,1.87,1.23,0,2.91-1.48,5.03-4.44l.97.78ZM94.4,47.44c2.04-3.23,3.59-6.2,4.64-8.92,1.05-2.72,1.58-4.91,1.58-6.58,0-.81-.2-1.5-.61-2.08-.41-.57-.95-.86-1.64-.86-1.1,0-2.04.65-2.81,1.95-.77,1.3-1.16,2.85-1.16,4.64v11.84Z"/>
    <path  d="M158.53,23.44c-.73,1.21-1.9,2.23-3.5,3.08-1.6.84-3.15,1.27-4.62,1.27s-3.51-.43-6.16-1.28c-2.62-.85-4.32-1.28-5.09-1.28-1.44,0-2.67.55-3.7,1.66s-1.55,2.44-1.55,4,.47,2.77,1.42,3.73c.95.97,2.12,1.73,3.53,2.28s3.6,1.24,6.58,2.08c2.98.81,5.38,1.61,7.19,2.39s3.35,1.95,4.61,3.5c1.26,1.55,1.89,3.59,1.89,6.11,0,3.77-1.55,7.12-4.64,10.06s-6.92,4.41-11.48,4.41c-4.17,0-7.62-1.09-10.36-3.28-2.74-2.19-4.11-4.79-4.11-7.81,0-2.23.8-4.09,2.41-5.58,1.6-1.49,3.68-2.23,6.22-2.23s4.92.73,6.77,2.2,2.77,3.21,2.77,5.23c0,1.38-.47,2.51-1.42,3.39-.95.89-2.09,1.33-3.42,1.33-2.21,0-3.85-1.02-4.94-3.06l.78-.44c.79.81,1.67,1.22,2.62,1.22,1.02,0,1.87-.36,2.55-1.08.68-.72,1.02-1.62,1.02-2.7,0-1.35-.57-2.48-1.7-3.39-1.14-.91-2.51-1.36-4.11-1.36-1.88,0-3.43.69-4.67,2.06-1.24,1.38-1.86,3.02-1.86,4.94,0,2.52,1.11,4.69,3.33,6.5s5.02,2.72,8.39,2.72c3.6,0,6.6-1.13,9-3.39,2.4-2.26,3.59-4.92,3.59-7.96,0-2.08-.56-3.77-1.67-5.07-1.11-1.29-2.45-2.26-4-2.91s-3.71-1.36-6.49-2.15c-2.77-.79-4.93-1.5-6.49-2.15-1.55-.65-2.85-1.58-3.91-2.81-1.05-1.23-1.58-2.83-1.58-4.81,0-2.71,1.07-5.04,3.22-6.98,2.15-1.95,4.63-2.92,7.47-2.92,1.31,0,3.19.34,5.62,1.03,2.46.67,4.23,1,5.31,1,1.77,0,3.31-.7,4.62-2.09l.56.56Z"/>
    <path  d="M170,53.47c2.12-2.15,4.2-3.22,6.22-3.22,1.6,0,2.88.56,3.83,1.69.95,1.12,1.42,2.61,1.42,4.47,0,2.38-.78,4.45-2.33,6.22-1.55,1.77-3.32,2.66-5.3,2.66-1.44,0-2.72-.43-3.84-1.28v12.03c0,2.48-.69,4.42-2.06,5.83s-3.05,2.11-5.03,2.11c-2.08,0-3.71-.9-4.88-2.69l2.56-2.53.53.44c-.15.38-.22.68-.22.91,0,.77.26,1.44.77,2.02.51.57,1.15.86,1.92.86,2.06,0,3.09-2.07,3.09-6.22v-21.31c-.75,1.73-1.73,3.38-2.94,4.94l-.91-.78c1.71-2.33,2.99-4.98,3.84-7.94l3.31-1.66v3.47ZM170,62.41c1.06,1.02,2.32,1.53,3.78,1.53,1.35,0,2.5-.58,3.45-1.75.95-1.17,1.42-2.62,1.42-4.38,0-1.5-.41-2.7-1.23-3.59-.82-.9-1.87-1.34-3.14-1.34-1.65,0-3.07.88-4.28,2.62v6.91ZM186.18,59.78c-2.29,3.62-5.33,5.66-9.12,6.09l-.28-.72c3.35-.75,6.18-2.79,8.47-6.12l.94.75Z"/>
    <path  d="M208.28,59.78c-2.38,3.71-4.7,5.56-6.97,5.56-.85,0-1.47-.23-1.84-.69s-.57-1.42-.59-2.88c-1.25,1.54-2.31,2.55-3.17,3.02-.87.47-1.85.7-2.95.7-1.6,0-2.88-.55-3.83-1.66-.95-1.1-1.42-2.58-1.42-4.44v-1.34c-.23.29-.76,1.04-1.59,2.25l-1.03-.72c1.83-2.83,3.77-5.06,5.8-6.67,2.03-1.61,3.81-2.42,5.33-2.42,1.08,0,2.16.32,3.22.97l2.75-1.41v10.62c0,1.12.05,1.8.16,2.03.1.23.38.34.84.34.4,0,.99-.35,1.78-1.06.79-.71,1.66-1.72,2.59-3.03l.94.81ZM198.81,59.41v-6.28c-.84-.85-1.84-1.28-3.01-1.28-1.26,0-2.38.58-3.39,1.75-1,1.17-1.51,2.61-1.51,4.34,0,1.5.36,2.66,1.07,3.48.71.82,1.68,1.23,2.92,1.23.96,0,1.86-.47,2.68-1.42.83-.95,1.24-1.56,1.24-1.83Z"/>
    <path  d="M223.59,59.78c-2.35,3.71-4.72,5.56-7.09,5.56s-3.66-1.39-3.66-4.16c0-2.25,1.07-4.7,3.22-7.34-.38.08-1.04.12-2,.12-.62,0-1.28-.12-1.97-.38-1.06,2.31-2.47,4.57-4.22,6.78l-.97-.78c1.96-2.83,3.67-6.05,5.12-9.66,2,.94,3.57,1.41,4.72,1.41,1.08,0,2.02-.43,2.81-1.28l.53.38c-1.28,1.58-2.31,3.18-3.09,4.8-.78,1.61-1.16,3.39-1.16,5.33,0,.6.2,1.17.6,1.7.4.53.84.8,1.32.8.79,0,1.56-.32,2.29-.97.73-.65,1.6-1.67,2.61-3.06l.94.75Z"/>
    <path  d="M238.96,59.78c-2.35,3.71-4.72,5.56-7.09,5.56s-3.66-1.39-3.66-4.16c0-2.25,1.07-4.7,3.22-7.34-.38.08-1.04.12-2,.12-.62,0-1.28-.12-1.97-.38-1.06,2.31-2.47,4.57-4.22,6.78l-.97-.78c1.96-2.83,3.67-6.05,5.12-9.66,2,.94,3.57,1.41,4.72,1.41,1.08,0,2.02-.43,2.81-1.28l.53.38c-1.28,1.58-2.31,3.18-3.09,4.8-.78,1.61-1.16,3.39-1.16,5.33,0,.6.2,1.17.6,1.7.4.53.84.8,1.32.8.79,0,1.56-.32,2.29-.97.73-.65,1.6-1.67,2.61-3.06l.94.75Z"/>
    <path  d="M237.59,59.59c2.71-3.87,4.93-6.37,6.66-7.49,1.73-1.13,3.54-1.69,5.44-1.69s3.23.48,4.27,1.44c1.03.96,1.55,2.3,1.55,4.01,0,2.44-.98,4.67-2.94,6.69-1.96,2.01-4.24,3.02-6.84,3.02-1.69,0-3.04-.51-4.05-1.52-1.01-1.01-1.52-2.3-1.52-3.86,0-.83.06-1.58.19-2.25-.31.35-.89,1.17-1.72,2.44l-1.03-.78ZM247.75,63.5c1.58,0,2.84-.57,3.78-1.72.94-1.15,1.41-2.67,1.41-4.56,0-1.65-.44-2.93-1.31-3.86-.88-.93-2.03-1.39-3.47-1.39-1.52,0-2.73.55-3.64,1.66-.91,1.1-1.36,2.65-1.36,4.62,0,3.5,1.53,5.25,4.59,5.25ZM259.03,59.78c-1.67,2.38-3.24,3.94-4.72,4.7-1.48.76-2.96,1.22-4.44,1.39l-.25-.72c3.44-.77,6.23-2.81,8.37-6.12l1.03.75Z"/>
    <path  d="M270.96,45.31c.31-.38.84-.56,1.59-.56,2.06,0,3.73.74,5,2.22,1.27,1.48,1.91,3.41,1.91,5.78,0,1.83-.39,3.66-1.16,5.48-.77,1.82-2.3,4.25-4.59,7.27l-.72-.34c.15-.54.22-1.01.22-1.41,0-.92-.2-1.82-.59-2.69s-.92-1.75-1.58-2.62l-1.5-2.02c-1.35,4.29-3.2,7.32-5.55,9.09l-.72-.34c.12-.85.19-1.45.19-1.78,0-.56-.21-1.52-.63-2.88-.42-1.36-.96-2.7-1.62-4.03-1.25,2-2.11,3.3-2.56,3.9l-.97-.9c2.27-3.19,3.84-6.22,4.7-9.09l.65.25c0,1.45.48,3.08,1.44,4.91.94,1.83,1.41,3.65,1.41,5.46v.47h.19c1.95-3.38,3.23-7.18,3.86-11.41h.77c0,1.81.68,3.48,2.03,5,1.67,1.79,2.56,3.91,2.69,6.34,1.84-3.08,2.77-5.86,2.77-8.34,0-3.46-1.41-5.19-4.22-5.19-.92,0-1.57.04-1.97.12-.69-1.04-1.03-1.94-1.03-2.69ZM283.71,59.78c-2.23,3.67-5.04,5.66-8.44,5.97l-.19-.59c1.5-.35,2.78-.94,3.83-1.77,1.05-.82,2.34-2.28,3.86-4.36l.94.75Z"/>
  </g>
  <text/>
  <text/>
</svg>